<svg width="31" height="26" viewBox="0 0 31 26" fill="none" xmlns="http://www.w3.org/2000/svg">
<path d="M0 0V21.2727C0 23.8845 2.13423 26 4.76923 26H26.2308C28.8658 26 31 23.8845 31 21.2727V8.27273H23.8462V0H0ZM2.38462 2.36364H21.4615V21.2727C21.4615 22.1355 21.7238 22.9391 22.1328 23.6364H4.76923C3.35038 23.6364 2.38462 22.6791 2.38462 21.2727V2.36364ZM4.76923 4.72727V10.6364H19.0769V4.72727H4.76923ZM7.15385 7.09091H16.6923V8.27273H7.15385V7.09091ZM23.8462 10.6364H28.6154V21.2727C28.6154 22.6791 27.6496 23.6364 26.2308 23.6364C24.8119 23.6364 23.8462 22.6791 23.8462 21.2727V10.6364ZM4.76923 11.8182V14.1818H10.7308V11.8182H4.76923ZM13.1154 11.8182V14.1818H19.0769V11.8182H13.1154ZM4.76923 15.3636V17.7273H10.7308V15.3636H4.76923ZM13.1154 15.3636V17.7273H19.0769V15.3636H13.1154ZM4.76923 18.9091V21.2727H10.7308V18.9091H4.76923ZM13.1154 18.9091V21.2727H19.0769V18.9091H13.1154Z" fill="white" fill-opacity="0.5"/>
</svg>
