<svg width="35" height="36" viewBox="0 0 35 36" fill="none" xmlns="http://www.w3.org/2000/svg">
<path d="M23.9686 12.887H11.3653C11.0868 12.887 10.8196 12.9976 10.6227 13.1946C10.4257 13.3915 10.3151 13.6587 10.3151 13.9372V22.3394C10.3151 22.618 10.4257 22.8851 10.6227 23.0821C10.8196 23.279 11.0868 23.3897 11.3653 23.3897H23.9686C24.2472 23.3897 24.5143 23.279 24.7113 23.0821C24.9082 22.8851 25.0189 22.618 25.0189 22.3394V13.9372C25.0189 13.6587 24.9082 13.3915 24.7113 13.1946C24.5143 12.9976 24.2472 12.887 23.9686 12.887ZM22.8133 13.9372L17.667 17.4977L12.5206 13.9372H22.8133ZM11.3653 22.3394V14.4151L17.3676 18.5689C17.4555 18.6299 17.56 18.6626 17.667 18.6626C17.774 18.6626 17.8784 18.6299 17.9663 18.5689L23.9686 14.4151V22.3394H11.3653Z" fill="#CFA85C"/>
<circle cx="17.3482" cy="18.0445" r="16.8794" stroke="#CFA85C" stroke-width="0.937743"/>
</svg>
