<svg width="35" height="34" viewBox="0 0 35 34" fill="none" xmlns="http://www.w3.org/2000/svg">
<path d="M17.7917 3.25C9.97167 3.25 3.625 9.41 3.625 17C3.625 24.59 9.97167 30.75 17.7917 30.75C25.6117 30.75 31.9583 24.59 31.9583 17C31.9583 9.41 25.6117 3.25 17.7917 3.25ZM24.365 12.6C24.1525 14.7725 23.2317 20.0525 22.7642 22.4863C22.5658 23.5175 22.1692 23.8613 21.8008 23.9025C20.9792 23.9713 20.3558 23.38 19.5625 22.8713C18.3158 22.0738 17.6075 21.5788 16.4033 20.8088C15.0008 19.915 15.9075 19.42 16.715 18.6225C16.9275 18.4163 20.5542 15.2125 20.625 14.9238C20.6348 14.88 20.6335 14.8346 20.6212 14.7915C20.6088 14.7483 20.5858 14.7088 20.5542 14.6763C20.4692 14.6075 20.3558 14.635 20.2567 14.6488C20.1292 14.6763 18.1458 15.955 14.2783 18.485C13.7117 18.8563 13.2017 19.0488 12.7483 19.035C12.2383 19.0213 11.275 18.76 10.5525 18.5263C9.66 18.2513 8.96583 18.1 9.0225 17.6188C9.05083 17.3713 9.405 17.1238 10.0708 16.8625C14.2075 15.1163 16.9558 13.9613 18.33 13.4113C22.2683 11.8163 23.0758 11.5413 23.6142 11.5413C23.7275 11.5413 23.9967 11.5688 24.1667 11.7063C24.3083 11.8162 24.3508 11.9675 24.365 12.0775C24.3508 12.16 24.3792 12.4075 24.365 12.6Z" fill="#0C0C0C"/>
</svg>
