<svg width="35" height="35" viewBox="0 0 35 35" fill="none" xmlns="http://www.w3.org/2000/svg">
<path d="M17.2546 19.9218C17.9621 19.9218 18.6405 19.6408 19.1407 19.1406C19.641 18.6403 19.922 17.9619 19.922 17.2545C19.922 16.547 19.641 15.8686 19.1407 15.3683C18.6405 14.8681 17.9621 14.5871 17.2546 14.5871C16.5472 14.5871 15.8688 14.8681 15.3685 15.3683C14.8683 15.8686 14.5873 16.547 14.5873 17.2545C14.5873 17.9619 14.8683 18.6403 15.3685 19.1406C15.8688 19.6408 16.5472 19.9218 17.2546 19.9218Z" stroke="#CFA85C" stroke-width="1.12529" stroke-linecap="round" stroke-linejoin="round"/>
<path d="M11.2529 19.9218V14.5871C11.2529 13.7028 11.6042 12.8548 12.2295 12.2295C12.8548 11.6042 13.7028 11.2529 14.5871 11.2529H19.9218C20.8061 11.2529 21.6542 11.6042 22.2795 12.2295C22.9048 12.8548 23.256 13.7028 23.256 14.5871V19.9218C23.256 20.8061 22.9048 21.6542 22.2795 22.2795C21.6542 22.9048 20.8061 23.256 19.9218 23.256H14.5871C13.7028 23.256 12.8548 22.9048 12.2295 22.2795C11.6042 21.6542 11.2529 20.8061 11.2529 19.9218Z" stroke="#CFA85C" stroke-width="1.12529"/>
<path d="M20.922 13.595L20.93 13.5862" stroke="#CFA85C" stroke-width="1.12529" stroke-linecap="round" stroke-linejoin="round"/>
<circle cx="17.3482" cy="17.3482" r="16.8794" stroke="#CFA85C" stroke-width="0.937743"/>
</svg>
