<svg width="25" height="25" viewBox="0 0 25 25" fill="none" xmlns="http://www.w3.org/2000/svg">
<path d="M10.6209 18.4211H15.8497V15.7895H10.6209V18.4211ZM10.6209 13.1579H19.7712V10.5263H10.6209V13.1579ZM6.69935 7.89474H19.7712V5.26316H6.69935V7.89474ZM6.20915 25C4.48802 25 3.02266 24.3912 1.81307 23.1737C0.603487 21.9561 -0.000870519 20.4816 9.41101e-07 18.75C9.41101e-07 17.5 0.321569 16.3816 0.964707 15.3947C1.60784 14.4079 2.45185 13.6623 3.49673 13.1579H0.1634V10.5263H8.00654V18.4211H5.39216V15.2303C4.58606 15.4057 3.92157 15.8224 3.39869 16.4803C2.87582 17.1382 2.61438 17.8947 2.61438 18.75C2.61438 19.7588 2.96819 20.614 3.67582 21.3158C4.38344 22.0175 5.22789 22.3684 6.20915 22.3684V25ZM10.6209 23.6842V21.0526H22.3856V2.63158H4.08497V7.89474H1.47059V2.63158C1.47059 1.90789 1.7268 1.2886 2.23922 0.773684C2.75163 0.258772 3.36689 0.000877193 4.08497 0H22.3856C23.1046 0 23.7203 0.257895 24.2327 0.773684C24.7451 1.28947 25.0009 1.90877 25 2.63158V21.0526C25 21.7763 24.7442 22.3961 24.2327 22.9118C23.7211 23.4276 23.1054 23.6851 22.3856 23.6842H10.6209Z" fill="white" fill-opacity="0.5"/>
</svg>
