<svg width="28" height="28" viewBox="0 0 28 28" fill="none" xmlns="http://www.w3.org/2000/svg">
<mask id="path-1-inside-1_222_1449" fill="white">
<path fill-rule="evenodd" clip-rule="evenodd" d="M13.8969 27.8969C21.5719 27.8969 27.7938 21.6751 27.7938 14C27.7938 6.32497 21.5719 0.103119 13.8969 0.103119C6.22185 0.103119 0 6.32497 0 14C0 21.6751 6.22185 27.8969 13.8969 27.8969ZM6.0077 8.11346H20.4267C20.7454 8.11346 21.051 8.24005 21.2763 8.46539C21.5017 8.69073 21.6283 8.99636 21.6283 9.31504V18.9277C21.6283 19.2464 21.5017 19.552 21.2763 19.7773C21.051 20.0027 20.7454 20.1293 20.4267 20.1293H6.0077C5.68902 20.1293 5.38339 20.0027 5.15805 19.7773C4.93271 19.552 4.80611 19.2464 4.80611 18.9277V9.31504C4.80611 8.99636 4.93271 8.69073 5.15805 8.46539C5.38339 8.24005 5.68902 8.11346 6.0077 8.11346ZM13.2172 13.3884L19.1049 9.31504H7.32944L13.2172 13.3884ZM6.0077 9.86176V18.9277H20.4267V9.86176L13.5596 14.614C13.4591 14.6838 13.3396 14.7212 13.2172 14.7212C13.0948 14.7212 12.9753 14.6838 12.8747 14.614L6.0077 9.86176Z"/>
</mask>
<path fill-rule="evenodd" clip-rule="evenodd" d="M13.8969 27.8969C21.5719 27.8969 27.7938 21.6751 27.7938 14C27.7938 6.32497 21.5719 0.103119 13.8969 0.103119C6.22185 0.103119 0 6.32497 0 14C0 21.6751 6.22185 27.8969 13.8969 27.8969ZM6.0077 8.11346H20.4267C20.7454 8.11346 21.051 8.24005 21.2763 8.46539C21.5017 8.69073 21.6283 8.99636 21.6283 9.31504V18.9277C21.6283 19.2464 21.5017 19.552 21.2763 19.7773C21.051 20.0027 20.7454 20.1293 20.4267 20.1293H6.0077C5.68902 20.1293 5.38339 20.0027 5.15805 19.7773C4.93271 19.552 4.80611 19.2464 4.80611 18.9277V9.31504C4.80611 8.99636 4.93271 8.69073 5.15805 8.46539C5.38339 8.24005 5.68902 8.11346 6.0077 8.11346ZM13.2172 13.3884L19.1049 9.31504H7.32944L13.2172 13.3884ZM6.0077 9.86176V18.9277H20.4267V9.86176L13.5596 14.614C13.4591 14.6838 13.3396 14.7212 13.2172 14.7212C13.0948 14.7212 12.9753 14.6838 12.8747 14.614L6.0077 9.86176Z" fill="#0C0C0C"/>
<path d="M21.2763 8.46539L20.6132 9.12848L20.6132 9.12848L21.2763 8.46539ZM21.2763 19.7773L20.6132 19.1143L20.6132 19.1143L21.2763 19.7773ZM5.15805 19.7773L5.82114 19.1143L5.82113 19.1143L5.15805 19.7773ZM5.15805 8.46539L5.82113 9.12848L5.82113 9.12848L5.15805 8.46539ZM19.1049 9.31504L19.6385 10.0862L22.1086 8.3773H19.1049V9.31504ZM13.2172 13.3884L12.6837 14.1596L13.2172 14.5287L13.7507 14.1596L13.2172 13.3884ZM7.32944 9.31504V8.3773H4.32579L6.79591 10.0862L7.32944 9.31504ZM6.0077 18.9277H5.06995V19.8654H6.0077V18.9277ZM6.0077 9.86176L6.54133 9.09066L5.06995 8.07241V9.86176H6.0077ZM20.4267 18.9277V19.8654H21.3644V18.9277H20.4267ZM20.4267 9.86176H21.3644V8.07241L19.893 9.09066L20.4267 9.86176ZM13.5596 14.614L13.026 13.8429L13.0251 13.8435L13.5596 14.614ZM12.8747 14.614L13.4092 13.8435L13.4084 13.8429L12.8747 14.614ZM26.856 14C26.856 21.1572 21.054 26.9592 13.8969 26.9592V28.8347C22.0898 28.8347 28.7315 22.193 28.7315 14H26.856ZM13.8969 1.04086C21.054 1.04086 26.856 6.84287 26.856 14H28.7315C28.7315 5.80707 22.0898 -0.834624 13.8969 -0.834624V1.04086ZM0.937743 14C0.937743 6.84287 6.73975 1.04086 13.8969 1.04086V-0.834624C5.70395 -0.834624 -0.937743 5.80707 -0.937743 14H0.937743ZM13.8969 26.9592C6.73975 26.9592 0.937743 21.1572 0.937743 14H-0.937743C-0.937743 22.193 5.70395 28.8347 13.8969 28.8347V26.9592ZM20.4267 7.17571H6.0077V9.0512H20.4267V7.17571ZM21.9394 7.80231C21.5382 7.40111 20.9941 7.17571 20.4267 7.17571V9.0512C20.4967 9.0512 20.5638 9.079 20.6132 9.12848L21.9394 7.80231ZM22.566 9.31504C22.566 8.74765 22.3406 8.20351 21.9394 7.80231L20.6132 9.12848C20.6627 9.17796 20.6905 9.24507 20.6905 9.31504H22.566ZM22.566 18.9277V9.31504H20.6905V18.9277H22.566ZM21.9394 20.4404C22.3406 20.0392 22.566 19.4951 22.566 18.9277H20.6905C20.6905 18.9977 20.6627 19.0648 20.6132 19.1143L21.9394 20.4404ZM20.4267 21.067C20.9941 21.067 21.5382 20.8416 21.9394 20.4404L20.6132 19.1143C20.5638 19.1637 20.4967 19.1915 20.4267 19.1915V21.067ZM6.0077 21.067H20.4267V19.1915H6.0077V21.067ZM4.49496 20.4404C4.89616 20.8416 5.44031 21.067 6.0077 21.067V19.1915C5.93772 19.1915 5.87061 19.1637 5.82114 19.1143L4.49496 20.4404ZM3.86837 18.9277C3.86837 19.4951 4.09376 20.0392 4.49496 20.4404L5.82113 19.1143C5.77165 19.0648 5.74386 18.9977 5.74386 18.9277H3.86837ZM3.86837 9.31504V18.9277H5.74386V9.31504H3.86837ZM4.49496 7.80231C4.09376 8.20351 3.86837 8.74765 3.86837 9.31504H5.74386C5.74386 9.24506 5.77165 9.17796 5.82113 9.12848L4.49496 7.80231ZM6.0077 7.17571C5.44031 7.17571 4.89617 7.40111 4.49496 7.80231L5.82113 9.12848C5.87061 9.079 5.93772 9.0512 6.0077 9.0512V7.17571ZM18.5714 8.54386L12.6837 12.6172L13.7507 14.1596L19.6385 10.0862L18.5714 8.54386ZM7.32944 10.2528H19.1049V8.3773H7.32944V10.2528ZM13.7507 12.6172L7.86296 8.54386L6.79591 10.0862L12.6837 14.1596L13.7507 12.6172ZM6.94544 18.9277V9.86176H5.06995V18.9277H6.94544ZM20.4267 17.99H6.0077V19.8654H20.4267V17.99ZM19.4889 9.86176V18.9277H21.3644V9.86176H19.4889ZM14.0933 15.3851L20.9603 10.6329L19.893 9.09066L13.026 13.8429L14.0933 15.3851ZM13.2172 15.6589C13.5306 15.6589 13.8366 15.5632 14.0941 15.3845L13.0251 13.8435C13.0815 13.8044 13.1485 13.7834 13.2172 13.7834V15.6589ZM12.3402 15.3845C12.5978 15.5632 12.9037 15.6589 13.2172 15.6589V13.7834C13.2858 13.7834 13.3528 13.8044 13.4092 13.8435L12.3402 15.3845ZM5.47406 10.6329L12.3411 15.3851L13.4084 13.8429L6.54133 9.09066L5.47406 10.6329Z" fill="#0C0C0C" mask="url(#path-1-inside-1_222_1449)"/>
</svg>
