<svg width="35" height="36" viewBox="0 0 35 36" fill="none" xmlns="http://www.w3.org/2000/svg">
<circle cx="17.3482" cy="17.7413" r="16.8794" stroke="#CFA85C" stroke-width="0.937743"/>
<path d="M9.75515 12.2561L9.27276 11.7985L9.75606 12.257L9.75515 12.2561ZM20.6619 20.6632L21.0794 20.2728L20.1119 19.3559L19.6971 19.7463L20.6619 20.6632ZM22.4763 20.1091L24.2222 21.0044L24.8754 19.8687L23.1304 18.9742L22.4763 20.1091ZM24.5575 22.783L23.2602 24.0007L24.2259 24.9167L25.5232 23.6999L24.5575 22.783ZM22.469 24.3919C21.1442 24.5091 17.7182 24.4048 14.0071 20.9251L13.0405 21.8412C17.0896 25.6388 20.9442 25.825 22.5969 25.6793L22.469 24.3919ZM14.0071 20.9251C10.4705 17.6075 9.88397 14.818 9.81088 13.6073L8.44229 13.6806C8.53365 15.2041 9.25997 18.296 13.0405 21.8412L14.0071 20.9251ZM15.2633 15.5996L15.5255 15.3532L14.5608 14.4372L14.2985 14.6828L15.2642 15.5988L15.2633 15.5996ZM15.7329 12.2208L14.5827 10.7696L13.4854 11.5452L14.6366 12.9955L15.7329 12.2208ZM10.708 10.4534L9.27368 11.7977L10.2403 12.7146L11.6737 11.3703L10.708 10.4534ZM14.7809 15.1412C14.2967 14.6828 14.2967 14.6828 14.2967 14.6845H14.2949L14.2922 14.6879C14.249 14.7294 14.2102 14.7747 14.1761 14.8232C14.1268 14.8922 14.0729 14.9826 14.0272 15.0972C13.916 15.3931 13.8882 15.7112 13.9468 16.0202C14.0692 16.7656 14.6137 17.7505 16.0079 19.0586L16.9736 18.1417C15.6681 16.9181 15.3583 16.1735 15.3008 15.822C15.2734 15.6548 15.3017 15.5721 15.3099 15.5531C15.3145 15.541 15.3163 15.5402 15.3099 15.5479C15.3019 15.5599 15.2927 15.5711 15.2825 15.5815L15.2734 15.5902C15.2704 15.5928 15.2674 15.5963 15.2642 15.5988L14.7809 15.1412ZM16.0079 19.0586C17.403 20.3667 18.4527 20.8769 19.2439 20.9906C19.6487 21.0492 19.9748 21.0027 20.2224 20.9157C20.3609 20.8673 20.4904 20.7987 20.6061 20.7123C20.6219 20.6999 20.6371 20.687 20.6518 20.6735L20.6582 20.6683L20.6609 20.6658L20.6619 20.6632C20.6619 20.6632 20.6628 20.6632 20.1795 20.2047C19.6953 19.7463 19.698 19.7454 19.698 19.7454L19.6998 19.7437L19.7017 19.742L19.7071 19.7377L19.7163 19.7291C19.7273 19.7198 19.7388 19.7111 19.751 19.7032C19.7601 19.6972 19.7574 19.6998 19.7446 19.7049C19.7218 19.7127 19.6322 19.7394 19.4522 19.7135C19.074 19.6584 18.2782 19.3654 16.9736 18.1417L16.0079 19.0586ZM14.5827 10.7696C13.6508 9.59767 11.8199 9.41067 10.708 10.4534L11.6737 11.3703C12.1598 10.9144 13.0222 10.9618 13.4854 11.5452L14.5818 10.7688L14.5827 10.7696ZM9.81179 13.6082C9.79352 13.31 9.93879 12.9972 10.2403 12.7146L9.27276 11.7985C8.78215 12.2587 8.3957 12.9102 8.44229 13.6806L9.81179 13.6082ZM23.2602 24.0007C23.0098 24.2368 22.7394 24.3695 22.4699 24.3928L22.5969 25.6793C23.2684 25.6199 23.8175 25.301 24.2268 24.9175L23.2602 24.0007ZM15.5255 15.3532C16.4254 14.5095 16.4921 13.1764 15.7347 12.2216L14.6375 12.9963C15.0057 13.4608 14.9509 14.0701 14.5598 14.438L15.5255 15.3532ZM24.2231 21.0053C24.9695 21.3879 25.0856 22.2893 24.5584 22.7839L25.525 23.6999C26.7493 22.5512 26.3719 20.6356 24.8764 19.8695L24.2231 21.0053ZM21.0794 20.2728C21.4302 19.9436 21.9948 19.8635 22.4772 20.1099L23.1314 18.975C22.141 18.4666 20.9131 18.6071 20.1128 19.3568L21.0794 20.2728Z" fill="#CFA85C"/>
</svg>
