<svg width="34" height="34" viewBox="0 0 34 34" fill="none" xmlns="http://www.w3.org/2000/svg">
<path d="M18.4558 2.83334C20.0496 2.83759 20.8585 2.84609 21.5569 2.86593L21.8318 2.87584C22.1491 2.88718 22.4622 2.90134 22.8404 2.91834C24.3478 2.98918 25.3763 3.22718 26.2787 3.57709C27.2137 3.93693 28.0013 4.42426 28.789 5.21051C29.5094 5.9187 30.0668 6.77534 30.4224 7.72084C30.7723 8.62326 31.0103 9.65176 31.0812 11.1605C31.0982 11.5373 31.1123 11.8504 31.1237 12.1692L31.1322 12.444C31.1534 13.141 31.1619 13.9499 31.1648 15.5437L31.1662 16.6005V18.4563C31.1697 19.4897 31.1588 20.523 31.1336 21.556L31.1251 21.8308C31.1138 22.1496 31.0996 22.4627 31.0826 22.8395C31.0118 24.3483 30.7709 25.3753 30.4224 26.2792C30.0678 27.2252 29.5103 28.0821 28.789 28.7895C28.0806 29.5096 27.224 30.067 26.2787 30.4229C25.3763 30.7728 24.3478 31.0108 22.8404 31.0817C22.5043 31.0975 22.1681 31.1117 21.8318 31.1242L21.5569 31.1327C20.8585 31.1525 20.0496 31.1624 18.4558 31.1653L17.399 31.1667H15.5446C14.5108 31.1702 13.477 31.1594 12.4435 31.1341L12.1687 31.1256C11.8324 31.1129 11.4962 31.0982 11.16 31.0817C9.65268 31.0108 8.62418 30.7728 7.72035 30.4229C6.77496 30.0679 5.91866 29.5104 5.21143 28.7895C4.49041 28.0816 3.9325 27.2249 3.5766 26.2792C3.22668 25.3768 2.98868 24.3483 2.91785 22.8395C2.90207 22.5034 2.8879 22.1671 2.87535 21.8308L2.86827 21.556C2.84216 20.523 2.83035 19.4897 2.83285 18.4563V15.5437C2.82889 14.5104 2.83928 13.477 2.86402 12.444L2.87393 12.1692C2.88527 11.8504 2.89943 11.5373 2.91643 11.1605C2.98727 9.65176 3.22527 8.62468 3.57518 7.72084C3.93093 6.77437 4.48995 5.91746 5.21285 5.21051C5.9199 4.4901 6.77564 3.93266 7.72035 3.57709C8.62418 3.22718 9.65126 2.98918 11.16 2.91834C11.5368 2.90134 11.8513 2.88718 12.1687 2.87584L12.4435 2.86734C13.4765 2.84217 14.5099 2.83131 15.5432 2.83476L18.4558 2.83334ZM16.9995 9.91668C15.1209 9.91668 13.3192 10.663 11.9908 11.9913C10.6625 13.3197 9.91618 15.1214 9.91618 17C9.91618 18.8786 10.6625 20.6803 11.9908 22.0087C13.3192 23.3371 15.1209 24.0833 16.9995 24.0833C18.8781 24.0833 20.6798 23.3371 22.0082 22.0087C23.3366 20.6803 24.0828 18.8786 24.0828 17C24.0828 15.1214 23.3366 13.3197 22.0082 11.9913C20.6798 10.663 18.8781 9.91668 16.9995 9.91668ZM16.9995 12.75C17.5576 12.7499 18.1103 12.8598 18.626 13.0733C19.1416 13.2867 19.6102 13.5997 20.0049 13.9943C20.3996 14.3889 20.7128 14.8574 20.9264 15.373C21.1401 15.8885 21.2501 16.4412 21.2502 16.9993C21.2503 17.5574 21.1405 18.1101 20.927 18.6258C20.7135 19.1414 20.4005 19.61 20.0059 20.0047C19.6113 20.3994 19.1429 20.7126 18.6273 20.9262C18.1117 21.1399 17.559 21.2499 17.0009 21.25C15.8738 21.25 14.7928 20.8022 13.9957 20.0052C13.1987 19.2082 12.7509 18.1272 12.7509 17C12.7509 15.8728 13.1987 14.7918 13.9957 13.9948C14.7928 13.1978 15.8738 12.75 17.0009 12.75M24.4384 7.79168C23.9688 7.79168 23.5184 7.97825 23.1863 8.31034C22.8542 8.64244 22.6676 9.09286 22.6676 9.56251C22.6676 10.0322 22.8542 10.4826 23.1863 10.8147C23.5184 11.1468 23.9688 11.3333 24.4384 11.3333C24.9081 11.3333 25.3585 11.1468 25.6906 10.8147C26.0227 10.4826 26.2093 10.0322 26.2093 9.56251C26.2093 9.09286 26.0227 8.64244 25.6906 8.31034C25.3585 7.97825 24.9081 7.79168 24.4384 7.79168Z" fill="#0C0C0C"/>
</svg>
