<svg width="35" height="34" viewBox="0 0 35 34" fill="none" xmlns="http://www.w3.org/2000/svg">
<path d="M17.7956 2.83334C25.6198 2.83334 31.9623 9.17576 31.9623 17C31.9623 24.8243 25.6198 31.1667 17.7956 31.1667C15.292 31.1707 12.8325 30.5082 10.6698 29.2471L3.63459 31.1667L5.54993 24.1287C4.28781 21.9653 3.62474 19.5047 3.62893 17C3.62893 9.17576 9.97134 2.83334 17.7956 2.83334ZM12.9676 10.3417L12.6843 10.353C12.5008 10.3642 12.3216 10.4124 12.1573 10.4947C12.0036 10.5817 11.8633 10.6905 11.7408 10.8177C11.5708 10.9778 11.4744 11.1166 11.371 11.2512C10.847 11.9325 10.5649 12.7689 10.5692 13.6283C10.572 14.3225 10.7533 14.9983 11.0367 15.6301C11.6161 16.9079 12.5695 18.2608 13.8275 19.5146C14.1307 19.8163 14.4282 20.1195 14.7483 20.4014C16.3115 21.7777 18.1742 22.7702 20.1883 23.2999L20.993 23.4232C21.2551 23.4373 21.5172 23.4175 21.7807 23.4048C22.1933 23.3835 22.5961 23.2717 22.9608 23.0775C23.1463 22.982 23.3273 22.878 23.5033 22.7658C23.5033 22.7658 23.5643 22.7262 23.6804 22.6383C23.8717 22.4967 23.9893 22.3961 24.1479 22.2303C24.2655 22.1085 24.3675 21.9654 24.4454 21.8025C24.5559 21.5716 24.6664 21.131 24.7118 20.7641C24.7458 20.4836 24.7358 20.3306 24.7316 20.2357C24.7259 20.0841 24.5998 19.9268 24.4624 19.8603L23.6379 19.4905C23.6379 19.4905 22.4054 18.9536 21.6518 18.6108C21.5729 18.5763 21.4884 18.5566 21.4024 18.5527C21.3055 18.5427 21.2076 18.5536 21.1152 18.5847C21.0228 18.6157 20.9382 18.6661 20.8669 18.7326C20.8598 18.7298 20.7649 18.8105 19.7407 20.0515C19.6819 20.1305 19.6009 20.1902 19.5081 20.223C19.4152 20.2558 19.3147 20.2602 19.2193 20.2357C19.1271 20.2109 19.0366 20.1797 18.9488 20.1422C18.7731 20.0685 18.7122 20.0402 18.5918 19.9892C17.7787 19.6344 17.0259 19.155 16.3605 18.5683C16.182 18.4124 16.0163 18.2424 15.8463 18.0781C15.2889 17.5443 14.8032 16.9405 14.4013 16.2818L14.3177 16.1472C14.2576 16.0567 14.2091 15.9592 14.1732 15.8568C14.1193 15.6485 14.2596 15.4813 14.2596 15.4813C14.2596 15.4813 14.6038 15.1045 14.7639 14.9005C14.9198 14.7022 15.0515 14.5095 15.1365 14.3721C15.3037 14.1029 15.3561 13.8267 15.2683 13.6128C14.8716 12.6438 14.4608 11.679 14.0386 10.7213C13.955 10.5315 13.7071 10.3955 13.4818 10.3686C13.4053 10.3601 13.3288 10.3516 13.2523 10.3459C13.0621 10.3365 12.8714 10.3384 12.6814 10.3516L12.9676 10.3417Z" fill="#0C0C0C"/>
</svg>
