<svg width="35" height="35" viewBox="0 0 35 35" fill="none" xmlns="http://www.w3.org/2000/svg">
<path d="M23.0685 11.5606C22.3807 10.8658 21.5615 10.315 20.6586 9.94017C19.7557 9.56536 18.7872 9.37408 17.8096 9.37749C13.7136 9.37749 10.3752 12.7159 10.3752 16.8119C10.3752 18.1248 10.7203 19.4001 11.3655 20.5254L10.3152 24.3814L14.2537 23.3461C15.3415 23.9388 16.5643 24.2538 17.8096 24.2538C21.9057 24.2538 25.2441 20.9155 25.2441 16.8194C25.2441 14.8314 24.4714 12.9634 23.0685 11.5606ZM17.8096 22.9935C16.6993 22.9935 15.6116 22.6934 14.6588 22.1308L14.4338 21.9958L12.0931 22.6109L12.7158 20.3303L12.5658 20.0978C11.9489 19.1127 11.6214 17.9741 11.6205 16.8119C11.6205 13.406 14.3962 10.6303 17.8021 10.6303C19.4526 10.6303 21.0055 11.2755 22.1683 12.4458C22.744 13.0189 23.2003 13.7006 23.5106 14.4514C23.821 15.2021 23.9792 16.007 23.9762 16.8194C23.9912 20.2253 21.2155 22.9935 17.8096 22.9935ZM21.2005 18.3723C21.013 18.2823 20.0977 17.8322 19.9327 17.7647C19.7601 17.7046 19.6401 17.6746 19.5126 17.8547C19.385 18.0422 19.0324 18.4623 18.9274 18.5824C18.8224 18.7099 18.7099 18.7249 18.5223 18.6274C18.3348 18.5374 17.7346 18.3348 17.0294 17.7046C16.4743 17.2095 16.1067 16.6019 15.9942 16.4143C15.8891 16.2268 15.9792 16.1292 16.0767 16.0317C16.1592 15.9492 16.2642 15.8142 16.3542 15.7091C16.4443 15.6041 16.4818 15.5216 16.5418 15.4015C16.6018 15.274 16.5718 15.169 16.5268 15.079C16.4818 14.9889 16.1067 14.0737 15.9566 13.6986C15.8066 13.3385 15.6491 13.3835 15.5365 13.376H15.1764C15.0489 13.376 14.8539 13.421 14.6813 13.6086C14.5163 13.7961 14.0361 14.2462 14.0361 15.1615C14.0361 16.0767 14.7038 16.962 14.7938 17.082C14.8839 17.2095 16.1067 19.085 17.9672 19.8877C18.4098 20.0828 18.7549 20.1953 19.0249 20.2778C19.4676 20.4204 19.8727 20.3978 20.1952 20.3528C20.5553 20.3003 21.298 19.9027 21.4481 19.4676C21.6056 19.0325 21.6056 18.6649 21.5531 18.5824C21.5006 18.4999 21.3881 18.4623 21.2005 18.3723Z" fill="#CFA85C"/>
<circle cx="17.3482" cy="17.3482" r="16.8794" stroke="#CFA85C" stroke-width="0.937743"/>
</svg>
